<?xml version="1.0" standalone="no"?>
<!DOCTYPE svg PUBLIC "-//W3C//DTD SVG 20010904//EN"
 "http://www.w3.org/TR/2001/REC-SVG-20010904/DTD/svg10.dtd">
<svg version="1.0" xmlns="http://www.w3.org/2000/svg"
 width="288.000000pt" height="288.000000pt" viewBox="0 0 288.000000 288.000000"
 preserveAspectRatio="xMidYMid meet">
<metadata>
Created by potrace 1.14, written by Peter Selinger 2001-2017
</metadata>
<g transform="translate(0.000000,288.000000) scale(0.100000,-0.100000)"
fill="#000000" stroke="none">
<path d="M550 2805 l0 -65 -55 0 -55 0 0 -115 0 -115 -60 0 -60 0 0 -120 0
-120 -65 0 -65 0 0 -295 0 -295 65 0 65 0 0 -125 0 -125 60 0 60 0 0 -115 0
-115 -60 0 -60 0 0 -60 0 -60 -65 0 -65 0 0 -60 0 -60 -55 0 -55 0 0 -60 0
-60 55 0 55 0 0 -60 0 -60 125 0 125 0 0 -115 0 -115 -60 0 -60 0 0 -60 0 -60
60 0 60 0 0 -65 0 -65 120 0 120 0 0 -55 0 -55 235 0 235 0 0 -60 0 -60 295 0
295 0 0 60 0 60 240 0 240 0 0 55 0 55 120 0 120 0 0 65 0 65 55 0 55 0 0 60
0 60 -55 0 -55 0 0 115 0 115 120 0 120 0 0 60 0 60 60 0 60 0 0 60 0 60 -60
0 -60 0 0 60 0 60 -65 0 -65 0 0 60 0 60 -55 0 -55 0 0 115 0 115 55 0 55 0 0
125 0 125 65 0 65 0 0 295 0 295 -65 0 -65 0 0 120 0 120 -55 0 -55 0 0 115 0
115 -60 0 -60 0 0 65 0 65 -60 0 -60 0 0 -65 0 -65 -60 0 -60 0 0 -60 0 -60
-55 0 -55 0 0 -55 0 -55 -60 0 -60 0 0 -120 0 -120 -65 0 -65 0 0 55 0 55 -55
0 -55 0 0 65 0 65 -60 0 -60 0 0 -65 0 -65 -65 0 -65 0 0 -55 0 -55 -55 0 -55
0 0 -60 0 -60 -60 0 -60 0 0 60 0 60 -60 0 -60 0 0 120 0 120 -60 0 -60 0 0
55 0 55 -55 0 -55 0 0 60 0 60 -60 0 -60 0 0 65 0 65 -65 0 -65 0 0 -65z"/>
</g>
</svg>
