<?xml version="1.0" standalone="no"?>
<!DOCTYPE svg PUBLIC "-//W3C//DTD SVG 20010904//EN"
 "http://www.w3.org/TR/2001/REC-SVG-20010904/DTD/svg10.dtd">
<svg version="1.0" xmlns="http://www.w3.org/2000/svg"
 width="280.000000pt" height="280.000000pt" viewBox="0 0 280.000000 280.000000"
 preserveAspectRatio="xMidYMid meet">
<metadata>
Created by potrace 1.14, written by Peter Selinger 2001-2017
</metadata>
<g transform="translate(0.000000,280.000000) scale(0.100000,-0.100000)"
fill="#000000" stroke="none">
<path d="M540 2725 l0 -55 -60 0 -60 0 0 -115 0 -115 -55 0 -55 0 0 -115 0
-114 -57 -3 -58 -3 -3 -287 -2 -288 60 0 60 0 0 -115 0 -115 55 0 55 0 0 -115
0 -115 -55 0 -54 0 -3 -57 -3 -58 -57 -3 -58 -3 0 -54 0 -55 -55 0 -55 0 0
-60 0 -60 55 0 55 0 0 -55 0 -55 115 0 115 0 0 -115 0 -115 -55 0 -55 0 0 -60
0 -60 55 0 55 0 0 -55 0 -55 115 0 115 0 0 -60 0 -60 230 0 230 0 0 -55 0 -55
290 0 290 0 0 55 0 55 230 0 230 0 0 60 0 60 115 0 115 0 0 55 0 55 55 0 55 0
0 60 0 60 -55 0 -55 0 0 115 0 115 115 0 115 0 0 55 0 55 55 0 55 0 0 60 0 60
-55 0 -55 0 0 55 0 54 -57 3 -58 3 -3 57 -3 58 -54 0 -55 0 0 115 0 115 55 0
55 0 0 115 0 115 60 0 60 0 -2 288 -3 287 -57 3 -58 3 0 114 0 115 -55 0 -55
0 0 115 0 115 -60 0 -60 0 0 55 0 55 -55 0 -55 0 0 -55 0 -54 -57 -3 -58 -3
-3 -57 -3 -58 -54 0 -55 0 0 -55 0 -54 -57 -3 -58 -3 -3 -112 -3 -113 -54 0
-55 0 0 55 0 55 -60 0 -60 0 0 60 0 60 -55 0 -55 0 0 -60 0 -60 -60 0 -60 0 0
-55 0 -55 -55 0 -55 0 0 -60 0 -60 -60 0 -60 0 0 60 0 60 -55 0 -54 0 -3 113
-3 112 -57 3 -58 3 0 54 0 55 -55 0 -54 0 -3 58 -3 57 -57 3 -58 3 0 54 0 55
-55 0 -55 0 0 -55z"/>
</g>
</svg>
